<?xml version="1.0" encoding="UTF-8" standalone="no"?>
<!DOCTYPE svg PUBLIC "-//W3C//DTD SVG 1.1//EN" "http://www.w3.org/Graphics/SVG/1.1/DTD/svg11.dtd" [
<!ENTITY ns_svg "http://www.w3.org/2000/svg">
	<!ENTITY ns_xlink "http://www.w3.org/1999/xlink">
]>
<svg enable-background="new 0 0 521.322 158.812" height="158.81" viewBox="0 0 521.322 158.812" width="521.32" xml:space="preserve" xmlns="http://www.w3.org/2000/svg">
<g fill-rule="evenodd">
	<path d="m35.997,3.182c.227,1.462-1.973.497-2.117,1.588-1.514-.754 1.229-3.078 2.117-1.588z" fill="#e7e7e8"></path>
	<path d="m37.056,4.77c1.488-.077 1.526,1.296 1.588,2.647-2.464-.17-3.532,1.055-5.823,1.059v-2.646c2.359,2.24 1.321-.679 4.235-1.06z" fill="#e7e7e8"></path>
	<path d="m71.464,5.299c.747,8.023 1.44,15.748.529,23.821-.145,1.282-.141,2.382-.529.529-1.425-6.806.915-13.199 0-24.35z"></path>
	<path d="m92.109,5.299c7.271.111 12.294,5.727 13.234,11.646-6.723-2.363-7.659-9.238-13.231-11.646zm9.531,5.294c-.626-.156-2-2.132-2.646-.53 1.106.329 1.986,2.715 2.646.53z" fill="#e7e7e8"></path>
	<path d="m98.991,10.063c.647-1.603 2.02.374 2.646.53-.66,2.185-1.54-.201-2.649-.53z"></path>
	<path d="m30.174,13.769c.752,3.53 1.42,15.793-.529,20.116-.072-8.495.049-15.915.529-20.116z"></path>
	<path d="m107.99,18.003c1.563-1.869 1.012,2.834 3.176,2.118-2.178,2.114 1.213,3.263 1.588,5.823-2.6-1.282-4.541-3.223-5.823-5.823 .18-.597 2.6-1.521 1.05-2.118z" fill="#e7e7e8"></path>
	<path d="m88.403,63.528c-4.234-.219-6.216-4.632-8.47-7.411-6.89-8.494-13.546-18.071-21.174-26.468-4.675,1.111-10.029-.369-14.293,1.588-4.048,1.857-6.931,8.447-11.116,11.117-8.082,5.153-17.448,7.095-29.115,3.176 4.033-1.526 7.676.318 12.175,0 11.926-.842 21.387-8.327 26.468-16.939 6.062.063 10.673-1.326 16.939-1.059 9.964,11.564 19.631,23.425 28.586,35.996z" fill="#e7e7e8"></path>
	<path d="m519.3,31.237c-3.835,2.87-11.815,1.595-17.469,2.647 3.29-3.413 11.52-1.89 17.47-2.647z" fill="#e7e7e8"></path>
	<path d="m519.3,33.884c-1.094,3.354-7.597,2.348-12.176,2.646-2.159.141-3.993,1.264-5.822,0 3.25-3.285 13.39-2.484 18-2.646z" fill="#e7e7e8"></path>
	<path d="m519.3,36.531v3.176c-6.07-.195-13.668,1.688-17.998,1.059v-2.646c7.07-.629 11.3-.858 18-1.589z" fill="#e7e7e8"></path>
	<path d="m499.18,42.354c-17.554.878-38.503,4.16-59.287,4.764 15.066-1.195 39.208-5.062 56.111-5.293 1.12-.016 2.67-1.832 3.18.529z"></path>
	<path d="m510.83,46.06c-1.609,1.744-6.074.631-8.47,1.588 1.35-2.002 5.79-.914 8.47-1.588z"></path>
	<path d="m399.66,50.824c12.422-.543 26.809-4.781 38.643-4.235 .89.041 1.008.232 1.06,1.059-13.55.733-25.86,2.715-39.7,3.176z"></path>
	<path d="m81.522,47.647c1.626-.81 1.626,3.457 0,2.647v-2.647z"></path>
	<path d="m119.11,48.706c1.511,1.204.313,2.045 1.059,4.235-2.09.323-.63-2.906-1.06-4.235z"></path>
	<path d="m399.14,50.294c-.996,2.003-5.139.86-7.411,1.588 .72-2.277 5.65-.345 7.41-1.588z"></path>
	<path d="m391.19,51.353c-2.35,1.259-3.911.929-7.94,1.059 .15-.759 5.19-1.153 7.94-1.059z"></path>
	<path d="m215.98,54.529c-4.062,1.231-10.408.18-15.351.53 4.43-3.309 10.36-2.958 15.35-.53z" fill="#e7e7e8"></path>
	<path d="m378.49,52.412c-39.685,4.774-78.159,7.328-114.87,10.587 36.35-4.557 76.8-7.32 114.87-10.587z"></path>
	<path d="m183.69,56.117c9.143.952 23.329.193 31.232.529-8.38,1.558-23.63,2.079-31.23-.529z" fill="#e7e7e8"></path>
	<path d="m133.4,59.823c5.153.494 7.98,3.312 7.94,8.999h-7.94c-.79-1.838-.55-5.824 0-8.999z" fill="#e7e7e8"></path>
	<path d="m183.69,60.881c6.036-2.292 16.09.467 24.35-.529-4.96,1.217-16.75.19-24.35.529z"></path>
	<path d="m160.4,60.352c4.591.35 10.583-.702 14.293.529 1.278,1.693-.827.999-1.059,1.588 1.755,1.421.542,5.811 1.588,7.94-2.229-.064-.526-4.062-1.059-5.823-1.394,3.143.2,9.951-.53,11.116-3.223.919-9.997.829-13.234,0 3.006-1.229 8.289-.181 12.175-.529-3.182-1.229-8.642-.181-12.705-.529 .26-4.6-.13-8.815.52-14.292z" fill="#e7e7e8"></path>
	<path d="m180.51,60.881c1.896,1.843-.13,8.538.529,13.763-.718-.164-.439-1.325-.529-2.118-1.783.479-.062,1.185-1.059,2.118-2.011-2.302-1.111-10.076-.529-13.234 1.227,2.478.182,7.229.529,10.587 2.46-2.062-.76-7.166 1.06-11.116z" fill="#e7e7e8"></path>
	<path d="m229.21,61.411c1.209,1.589-4.067,1.206-5.823,1.588-.13-2.6 5.12.183 5.82-1.588z"></path>
	<path d="m211.74,62.999c-.066,1.169-2.246.225-3.176.529 .02-1.451 2.5-1.257 3.18-.529z"></path>
	<path d="m155.63,62.999c2.088-.323.623,2.907 1.059,4.235-1.52-.73-.45-1.943-1.06-4.235z"></path>
	<path d="m142.4,63.528c3.366.164 4.774,2.284 5.294,5.294h-4.235c-.72-1.397-.63-3.61-1.06-5.294z" fill="#e7e7e8"></path>
	<path d="m80.992,65.116c9.719-1.977 16.953,4.072 17.999,12.175 1.784,13.83-10.381,20.093-20.116,16.939-14.627-4.737-11.295-26.387 2.117-29.114zm-.529,25.409c17.125,5.083 20.571-26.041.529-21.174-10.382,2.521-9.745,18.439-.529,21.174z" fill="#e7e7e8"></path>
	<path d="m136.04,70.41c3.59.292 8.386-.622 11.116.529-.08,6.405-11.15,4.889-11.12-.529z" fill="#e7e7e8"></path>
	<path d="m131.81,73.586c-9.218,2.48-21.768,3.885-31.761,2.117 8.5-1.579 23.57-3.431 31.76-2.117z" fill="#e7e7e8"></path>
	<path d="m131.81,76.762v8.47c-4.719.593-10.293-1.228-15.881-2.118-5.5-.875-11.886-.42-15.351-3.705 9.75-1.543 20.62-1.968 31.23-2.647z" fill="#e7e7e8"></path>
	<path d="m399.14,76.762c1.671-.259 1.869.954 3.705.529-.13.766-4.36,1.231-3.7-.529z"></path>
	<path d="m87.874,77.821c6.136,2.111-5.431,12.602-7.94,4.764 3.249,3.419 10.817.733 7.94-4.764z"></path>
	<path d="m177.86,79.409c-3.762,2.107-13.354,1.053-17.998.529 .734-.325.08-2.038 1.059-2.117 3.83,1.347 15.2-2.803 16.94,1.588z" fill="#e7e7e8"></path>
	<path d="m85.757,80.467c.308,1.896-1.567,1.609-3.176,1.588 .305-1.282 1.999-1.177 3.176-1.588z"></path>
	<path d="m132.87,81.526c8.936-.008 13.229.392 20.645,0 .858,4.123.124,7.107.529,12.175 1.229-3.006.181-8.289.529-12.175 2.978,1.304 1.099,4.712 1.059,6.881-.072,3.916.827,8.112.529,13.234-4.67.594-8.297-.11-15.351,0 2.145-3.22 4.927-1.072 6.882-3.706 7.496-10.1-12.668-18.909-13.764-5.823-2.39-1.501-.43-7.342-1.07-10.585z" fill="#e7e7e8"></path>
	<path d="m177.34,82.055c.256,1.844-2.583.594-2.646,2.118-5.034-1.422-9.834.039-14.293-2.118 7.14-1.207 13.4-.034 16.94,0z" fill="#e7e7e8"></path>
	<path d="m131.81,87.878c-2.786,2.717-9.935-.185-14.822-1.059-5.489-.982-11.585-1.554-16.41-2.646-.326-.472-.64-.947 0-1.06-.086-.615.117-.941.529-1.059 10.71,2.633 21.09,2.39 30.7,5.824z" fill="#e7e7e8"></path>
	<path d="m156.69,82.055c2.187,4.363.943,14.312.529,19.587-1.23-5.471-.18-13.23-.53-19.585z" fill="#e7e7e8"></path>
	<path d="m307.03,84.703c-3.21,2.028-3.59-2.154 0,0z"></path>
	<path d="m160.4,86.291c4.352.954 9.83.47 14.293,0 .508,3.581.057,8.598.529,15.352-5.662,1.22-10.173-.405-14.822.529 .43-5.437-1.6-11.028 0-15.879zm13.23,6.881c.343,2.48-.692,6.338.53,7.939v-8.469c-.119-.411-.015-1.045-.53-1.06-.21.758-.64.896 0,1.591zm-.53,5.293c-.351-1.439-.333-5.983-1.059-5.293 .51,1.61-1.13,5.369 1.06,5.293z" fill="#e7e7e8"></path>
	<path d="m147.16,92.113h-11.646c.11-6.618 11.65-7.004 11.65,0z" fill="#e7e7e8"></path>
	<path d="m243.5,91.583c22.293,1.392 49.024,4.415 68.816,8.47-23.59-2.967-44.73-5.203-68.82-8.467z"></path>
	<path d="m173.63,91.583c.515.015.411.648.53,1.06v8.469c-1.222-1.602-.187-5.459-.53-7.939-.64-.694-.21-.832 0-1.588z"></path>
	<path d="m210.16,92.113c1.978.048 1.509.594 3.176,0 .75,1.652-3.94,1.652-3.18,0z"></path>
	<path d="m452.6,92.643c3.223-1.446 7.739.368 11.116.529-4.3,1.286-6.72-.644-11.12-.529z"></path>
	<path d="m172.04,93.172c.725-.69.708,3.854 1.059,5.293-2.19.076-.55-3.683-1.06-5.293z"></path>
	<path d="m133.4,93.172c1.851,1.148 6.154-.155 7.94,1.059-.497,4.973-3.063,7.877-8.47,7.94 .26-2.911-.58-6.935.53-8.998z" fill="#e7e7e8"></path>
	<path d="m142.93,93.702h4.235c.117,3.086-2.889,5.379-4.764,4.764-.29-2.049.94-2.585.53-4.764z" fill="#e7e7e8"></path>
	<path d="m224.98,94.76c.455-1.094 3.685-.559 4.235,0-.46,1.093-3.69.559-4.24,0z"></path>
	<path d="m471.13,94.76c1.444-1.157 18.023,1.229 7.94,1.059-2.32-.039-5.45-.982-7.94-1.059z"></path>
	<path d="m233.98,94.76c34.706,4.61 70.991,8.248 107.46,13.233-34.54-2.585-71.037-8.738-106.4-11.646-.35-.534-1.22-.544-1.06-1.584z"></path>
	<path d="m483.3,95.29c4.794,1.205 10.873,1.125 15.88,2.117-5.55.509-11.37-.026-15.88-2.117z"></path>
	<path d="m86.286,96.348c.469,3.148-3.092,5.748-5.294,8.47-6.623,8.188-14.084,18.098-20.645,26.468-5.884-.997-12.58-1.184-18.527-2.117-5.82-11.02-20.214-18.25-36.526-15.35-.144-2.48 2.743-2.455 3.706-2.646 15.846-3.164 28.053,8.025 34.408,15.88 3.937.535 10.654.812 15.352,2.118 9.821-10.29 17.026-23.21 27.526-32.822z" fill="#e7e7e8"></path>
	<path d="m177.34,96.348c1.514.074.968,2.208 1.059,3.705-.82-.765-1.12-2.061-1.06-3.702z" fill="#e7e7e8"></path>
	<path d="m500.24,133.93c-6.371,1.202-12.829-.865-19.058-1.588-47.143-5.469-92.854-10.518-139.75-16.41-53.481-6.721-107.2-13.492-158.81-16.939v-1.059c-.086-.615.117-.941.53-1.059 56.289,2.674 105.12,9.558 160.4,16.41 49.448,6.13 96.932,11.834 148.22,17.998 2.36.29 7.05-.66 8.47,2.65z" fill="#e7e7e8"></path>
	<path d="m500.24,137.11c-105.04-10.265-210.92-27.374-317.08-35.467-.086-.616.117-.942.529-1.06 52.786,2.352 107.56,11.09 159.86,16.939 38.929,4.354 77.303,9.181 118.58,13.764 12.96,1.44 25.96,2.73 38.11,5.83z" fill="#e7e7e8"></path>
	<path d="m499.71,139.76c-90.3-11.547-187.16-21.14-278.44-33.35-12.711-1.7-22.603-.222-34.938-1.588-.159-.018-3.028.913-2.117-1.059 50.674,1.095 106.1,10.212 159.34,16.41 46.851,5.454 91.925,11.505 137.1,16.409 6.33.68 13.19.29 19.06,3.18z" fill="#e7e7e8"></path>
	<path d="m84.168,106.41c.616-.086.942.117 1.059.529-.152,14.701.278,30.748 0,41.29-1.703-11.76.445-30.39-1.059-41.82z"></path>
	<path d="m342.49,108.52c2.518-1.007 7.112.528 8.999.529-2.19,1.12-6.4-.28-9-.53z"></path>
	<path d="m214.39,109.05c-2.301,3.877-8.997,1.287-12.705.529 4.17-2.4 7.21.07 12.71-.53z" fill="#e7e7e8"></path>
	<path d="m353.61,110.11c.734-1.727 4.316-.179 5.294,0 5.6,1.02-.52.16-5.29,0z"></path>
	<path d="m501.3,122.29c5.713.814 11.207,1.851 17.469,2.117 .445,2.73.69,5.661.529,8.999-6.356-.349-12.075-1.335-17.998-2.117v-3.706c5.49.728 12.84,2.278 17.469,2.118-4.734-1.972-11.229-2.183-17.469-2.647v-4.76z" fill="#e7e7e8"></path>
	<path d="m17.47,128.64c3.385,4.731 6.839,9.394 9.528,14.821-3.754-4.36-6.934-9.3-9.528-14.82z"></path>
	<path d="m501.3,132.34c5.38,1.854 14.537-.069 17.998,3.705-4.391,2.215-12.245-1.122-17.998-1.059v-2.64z" fill="#e7e7e8"></path>
	<path d="m519.3,139.76c-5.921-1.138-13.961-.155-17.998-3.177 4.57.42 14.62-.18 18,3.18z" fill="#e7e7e8"></path>
	<path d="m501.83,139.76c6.494-1.263 11.006.797 16.939,1.588-4.74.67-11.84-.87-16.94-1.59z" fill="#e7e7e8"></path>
	<path d="m72.523,152.99c-.355,1.299-3.081,1.622-3.706,1.059 .769-.82 2.065-1.11 3.706-1.06z"></path>
	<path d="m145.57,58.234h34.938c2.252.488.035-3.494 2.117-3.176 5.298-.645 9.975.883 14.293,0 5.836-1.194 8.109-5.27 15.351-3.706 2.307.498 4.613,1.458 7.411,3.706 50.212-4.883 102.46-9.062 149.81-13.234 49.462-4.358 99.264-10.164 151.4-12.705 .817,42.524.396,70.419-.529,115.93-95.167-9.483-188.05-21.81-281.62-32.819-6.635-.781-14.244-3.099-19.057-2.647-4.939.464-8.731,4.026-14.822,2.647-2.297-.521-4.471-1.443-6.881-3.706-6.389.369-11.701-.834-16.41.529v-3.705c-5.197-.487-11.467-.529-19.057-.529-6.949,0-16.389-1.642-21.704,0-3.322,1.026-8.793,7.941-12.175,11.646-8.44,9.245-14.03,15.875-22.762,24.88-3.325,3.43-7.958,10.282-11.646,12.175-3.391,1.741-8.898,1.739-13.234,2.647-4.349.91-9.157,2.647-12.704,2.646-6.545-.003-14.493-3.413-21.704-5.294-7.109-1.854-14.194-4.039-21.174-5.822-6.498-10.089-13.203-19.971-19.057-30.703-2.267-.53-4.629.7-5.294-2.117-1.386-5.877 10.693-5.826 16.41-5.294 12.395,1.155 22.771,10.149 26.997,16.41 5.784.298 8.682.667 13.234,1.588 9.726-8.978 16.553-20.854 25.409-30.702-20.381-.301-18.812-34.919 0-33.879-6.666-10.098-16.562-21.551-24.88-31.761-3.233,1.202-8.234-.431-12.175,1.059-2.872,1.086-4.648,5.583-7.94,8.47-8.729,7.656-24.601,12.673-38.114,4.764-.061-3.06 2.23-3.769 4.764-4.234 6.237-10.526 12.993-20.534 19.586-30.703 .77-.995 3.465-.064 4.235-1.059 .335-8.706 14.849-12.237 18.527-4.235 7.211-.405 14.321-5.03 21.704-5.293 4.512-.161 10.073,3.28 15.88,3.706 6.15.451 11.218-2.416 16.41,0 3.965,1.845 8.015,8.994 11.117,13.763 9.56,14.691 23.56,28.418 33.34,40.738zm-56.637-51.347c-3.404-2.393-9.764-1.999-13.763-3.176 2.46.724-5-2.829-5.823-2.118-.969,1.149.1,4.335-1.059,5.294-1.664-.903.593-3.714-.529-4.235-4.817,1.183-10.428,1.571-13.764,4.235-3.665-.677-13.572,1.128-16.939,4.235-.94-1.998-4.452-.257-5.823.529 1.72.611 3.256-1.617 4.235,0-2.65-.18-3.702,1.238-6.352,1.059-1.415.526.702,4.584-1.588,4.235v-4.764c-2.738-.077-4.621,3.477-4.234,4.764-3.222,6.673-11.84,17.088-15.881,26.468 10.038,1.518 19.901-.633 24.88-5.823 .987-1.564-1.585-12.795 1.059-15.881 .35,4.944-.702,11.289.529,15.351 .854-.733 1.676-1.5 2.646-2.117-.857-.793-2.296-5.843 0-6.352v5.293c2.958-1.102 3.176-4.941 5.823-6.353 6.279-.426 12.172-1.238 18.527-1.588 5.103,4.955 8.874,11.242 13.763,16.41 .35-5.12-.702-11.642.529-15.881 1.551,6.197-2.065,16.634 3.176,20.645 .517-3.013-1.145-8.203 1.059-9.528v11.116c6.33,8.669 13.721,16.276 20.116,24.88 6.665.053 11.849-1.096 19.586-1.059 .095-6.656-.239-13.952.529-18.527 .907,2.245.519,5.65.529,8.999 .01,2.994-1.615,8.61 2.118,8.999 .618-.828-.888-6.842.529-8.47 1.492,2.907-.43,6.786.529,8.47 2.62-.38 5.272-.727 8.47-.529 .308-4.28-.645-9.82.529-13.234 1.656-.108 3.886.357 4.764-.529-6.337-8.132-13.5-15.438-20.645-22.762-.917,10.595 1.897,17.877-.529,25.938-.004-5.083.006-10.82 0-15.881-.004-4.234 1.588-10.583-2.117-12.705-.533,1.761 1.17,5.759-1.059,5.823 .011-3.54.457-4.837 0-7.411-6.211-7.553-14.001-13.525-19.057-22.233-3.236,1.859-3.845-.944-4.76-1.587zm-55.053-2.117c.144-1.091 2.344-.126 2.117-1.588-.888-1.49-3.631.834-2.117,1.588zm-1.059,1.059v2.646c2.291-.003 3.359-1.229 5.823-1.059-.062-1.351-.1-2.724-1.588-2.647-2.914.382-1.876,3.301-4.235,1.06zm72.519,11.116c-.94-5.919-5.962-11.535-13.234-11.646 5.575,2.408 6.511,9.283 13.234,11.646zm1.59,3.176c1.282,2.6 3.223,4.541 5.823,5.823-.375-2.56-3.766-3.709-1.588-5.823-2.164.717-1.613-3.986-3.176-2.118 1.56.597-.86,1.521-1.05,2.118zm-47.112,7.411c-6.267-.267-10.877,1.122-16.939,1.059-5.081,8.612-14.542,16.097-26.468,16.939-4.5.318-8.142-1.526-12.175,0 11.667,3.919 21.033,1.977 29.115-3.176 4.186-2.669 7.068-9.259 11.116-11.117 4.264-1.957 9.618-.477 14.293-1.588 7.627,8.397 14.284,17.974 21.174,26.468 2.254,2.778 4.235,7.192 8.47,7.411-8.956-12.571-18.623-24.432-28.586-35.996zm442.01,6.352c5.653-1.052 13.634.223 17.469-2.647-5.95.757-14.18-.766-17.47,2.647zm-7.94-.529c-65.762,6.355-139.76,11.766-209.62,18.527-32.82,3.176-65.65,7.812-101.11,6.352-.325,15.275-.264,20.631-.53,37.584 32.786.461 60.399,4.238 90.52,7.94 62.312,7.657 128.61,15.394 190.57,22.762 12.171,1.447 24.256,4.473 36.526,3.706 .164-3.879-3.817-2.764-5.823-3.177-18.884-3.889-38.207-4.75-55.053-6.881-20.848-2.638-42.734-4.151-63.523-8.47 20.391,2.729 41.843,5.114 62.994,7.41 21.162,2.298 42.101,6.656 61.405,6.353 .737-4.704-4.387-3.673-8.471-4.234-4.765-.655-10.295-.891-13.763-2.647 7.197,1.097 14.667,1.92 22.233,2.647-.497-20.572.17-44.761 0-70.934 .702-2.468-1.18-2.35-2.118-3.176 4.183.477 1.239-6.172 2.118-8.999-88.736,7.928-176.31,16.272-259.38,22.762 82.854-7.522 168.12-16.049 252.5-23.292 1.925-.166 5.863,1.504 6.882-1.588-11.611-.207-23.665.923-35.467,2.118-83.951,8.497-173.61,15.804-252.5,22.233 95.685-9.789 191.43-17.032 287.97-26.468-1.42-2.4-5.52-.613-6.37-.531zm7.41,3.176c1.829,1.264 3.663.141 5.822,0 4.579-.298 11.082.707 12.176-2.646-4.61.161-14.75-.64-18,2.646zm0,1.588v2.646c4.33.629 11.928-1.253 17.998-1.059v-3.176c-6.7.732-10.93.961-18,1.589zm17.47,2.117c-5.748,1.661-12.611.592-17.469,2.118 .219,23.335-.018,50.859 0,78.874 5.512,1.369 12.24,1.522 17.998,2.646-.186-7.604.09-14.659 0-23.292-2.535-.993-7.581.593-9.528-2.117 3.724.952 5.692.812 9.528,1.059v-53.464c-3.022-.711-5.798,1.59-7.94,0 2.554-.446 5.274-.725 7.94-1.059-.58-2.142 1.72-4.091-.53-4.773zm-318.14,14.823c4.943-.35 11.289.702 15.351-.53-4.99-2.428-10.92-2.779-15.35.53zm14.29,1.587c-7.903-.336-22.089.423-31.232-.529 7.6,2.608 22.85,2.087 31.23.529zm-81.52,12.176h7.94c.04-5.687-2.788-8.505-7.94-8.999-.55,3.175-.79,7.161 0,8.999zm6.88-7.411c1.454,1.634 2.917.157 5.293,1.059 8.246,5.514 1.05,18.51-7.411,13.763-2.328-1.306-1.677-4.371-4.764-5.823-1.444,3.076.369,6.404-.529,9.528 7.765.863 12.009.137 21.174.529 .322-1.266-.665-3.84.529-4.235 .436,1.329-1.029,4.558 1.059,4.235 1.739-2.564-.912-6.785 1.059-8.47v7.94c2.438-4.267.376-13.034 1.059-19.057-5.66-.578-13.16-1.372-17.47.531zm19.59,13.234c4.062.349 9.523-.7 12.705.529-3.886.348-9.169-.7-12.175.529 3.237.829 10.011.919 13.234,0 .73-1.166-.864-7.973.53-11.116 .533,1.761-1.171,5.758 1.059,5.823-1.046-2.13.167-6.52-1.588-7.94 .232-.589 2.337.105 1.059-1.588-3.71-1.231-9.702-.18-14.293-.529-.65,5.476-.26,9.691-.53,14.292zm19.58-2.647c-.347-3.358.698-8.109-.529-10.587-.582,3.158-1.482,10.932.529,13.234 .997-.933-.724-1.639 1.059-2.118 .09.792-.189,1.954.529,2.118-.659-5.225 1.366-11.92-.529-13.763-1.82,3.949 1.4,9.053-1.06,11.116zm-35.99-3.176h4.235c-.52-3.01-1.928-5.13-5.294-5.294 .42,1.684.33,3.897 1.05,5.294zm-64.585,25.409c9.735,3.153 21.9-3.109 20.116-16.939-1.045-8.104-8.279-14.152-17.999-12.175-13.412,2.726-16.744,24.376-2.117,29.114zm68.285-23.292c-2.73-1.151-7.526-.238-11.116-.529-.03,5.418 11.04,6.934 11.12.529zm-47.11,4.764c9.993,1.768 22.543.363 31.761-2.117-8.19-1.314-23.26.538-31.76,2.117zm.53,3.706c3.465,3.285 9.852,2.83 15.351,3.705 5.587.891 11.162,2.711 15.881,2.118v-8.47c-10.61.679-21.48,1.104-31.23,2.647zm60.34-1.588c-.979.08-.325,1.792-1.059,2.117 4.644.523 14.236,1.578 17.998-.529-1.74-4.391-13.11-.241-16.94-1.588zm-26.99,14.292c1.095-13.085 21.259-4.276 13.764,5.823-1.955,2.634-4.737.486-6.882,3.706 7.054-.11 10.681.594 15.351,0 .297-5.122-.601-9.318-.529-13.234 .04-2.169 1.919-5.577-1.059-6.881-.348,3.886.7,9.169-.529,12.175-.406-5.068.329-8.053-.529-12.175-7.416.392-11.709-.008-20.645,0 .65,3.244-1.31,9.085 1.07,10.588zm26.47-10.058c4.459,2.157 9.259.696 14.293,2.118 .063-1.524 2.902-.274 2.646-2.118-3.54-.034-9.8-1.207-16.94,0zm-59.29,0c-.413.117-.615.443-.529,1.059-.64.112-.326.588 0,1.06 4.825,1.093 10.921,1.664 16.41,2.646 4.887.874 12.036,3.775 14.822,1.059-9.61-3.435-19.99-3.192-30.7-5.824zm56.11,19.585c.414-5.275 1.657-15.224-.529-19.587 .35,6.357-.7,14.116.53,19.587zm-33.88,18c-2.029-1.229 1.99-.772 1.588-2.118 1.232-3.157-.334-18.655 1.059-23.291 .46,8.216-1.155,17.687 1.588,21.174 1.696-1.127 1.132-4.514 2.118-6.353 1.173,3.683 4.439-2.97 5.823-4.234-1.676-.573-2.691.296-3.706-1.588-.224-4.672-.646-7.833 0-12.176-3.206.029-5.614-.737-8.47-1.059-1.391,6.123.788,12.662-1.059,16.939 .229-6.232-.374-12.623 0-17.469-8.465-.357-14.757-2.889-23.292-3.176-3.272,8.521-14.427,11.735-16.939,20.645-.642,2.275 1.368,5.561-1.059,7.94-.339-2.131.688-5.629-.529-6.882-6.335,8.311-12.453,16.838-19.586,24.351-8.596-.58-18.782.431-22.762-4.765-.689,6.413 1.373,12.181-.529,15.881-.317-5.852-.16-9.87-.529-14.292-.128-1.527 1.645-3.969-1.588-4.235-.34,2.131.688,5.629-.529,6.882 1.741-14.291-12.73-17.344-26.468-15.881 5.322,10.559 11.985,19.776 17.998,29.644 5.291.356 8.808,2.485 13.763,3.177 .051-2.346-3.978-.61-4.235-2.646 1.963-.375 2.272.904 4.235.529 .42-5.339-.583-8.871.529-13.234 1.191,4.279.209,10.731.53,15.881 1.275-.217 1.15.967 2.646.529 .665-3.068-1.704-5.911.529-7.411 .72.876-.432,3.089 0,5.294 6.971,3.087 16.271,3.845 23.292,6.881-7.345-.771-13.015-3.219-19.586-4.764 10.587,7.73 27.073,5.351 40.231,1.588 .891-6.205-.45-13.426 1.059-19.586-.086,6.129.121,14.643 0,19.057h3.176c1.481-2.048-.447-7.506 1.059-9.528v5.294c3.744-1.379 6.137-6.914 8.999-7.411 .029.677.679.732.53,1.588-.834-.048-.415-1.351-1.588-1.059-1.819,3.827-5.831,5.462-7.94,8.999 2.138-2.578 7.362-3.843 3.176-1.588 2.019-1.088 3.669-1.566 3.706-4.235-3.025,3.986.853-3.105 1.588,0 9.19-8.82 12.57-17.26 21.17-23.3zm37.06-17.47c4.649-.935 9.161.69 14.822-.529-.472-6.754-.021-11.771-.529-15.352-4.463.47-9.941.954-14.293,0-1.6,4.854.43,10.445 0,15.882zm-24.88-10.057h11.646c-.01-7.004-11.55-6.618-11.65,0zm-2.65,10.057c5.407-.063 7.973-2.968 8.47-7.94-1.786-1.214-6.089.09-7.94-1.059-1.11,2.064-.27,6.088-.53,8.999zm9.53-3.705c1.875.615 4.881-1.678 4.764-4.764h-4.235c.42,2.18-.81,2.716-.52,4.764zm-83.64,30.705c-4.698-1.306-11.415-1.583-15.352-2.118-6.355-7.85-18.562-19.04-34.408-15.88-.962.191-3.849.166-3.706,2.646 16.312-2.9 30.705,4.33 36.526,15.352 5.947.934 12.643,1.12 18.527,2.117 6.56-8.37 14.021-18.28 20.645-26.468 2.202-2.722 5.763-5.321 5.294-8.47-10.5,9.61-17.705,22.53-27.526,32.82zm119.63-29.12c-.09-1.497.456-3.631-1.059-3.705-.05,1.644.25,2.94 1.06,3.705zm313.38,31.24c-51.287-6.164-98.771-11.868-148.22-17.998-55.273-6.853-104.1-13.736-160.4-16.41-.413.117-.616.443-.53,1.059v1.059c51.607,3.447 105.33,10.219 158.81,16.939 46.896,5.893 92.606,10.941 139.75,16.41 6.229.723 12.687,2.79 19.058,1.588-1.42-3.32-6.11-2.37-8.47-2.65zm-29.64,0c-41.272-4.583-79.646-9.409-118.58-13.764-52.304-5.85-107.08-14.588-159.86-16.939-.413.117-.616.443-.529,1.06 106.17,8.093 212.04,25.202 317.08,35.467-12.15-3.11-25.15-4.4-38.11-5.83zm18.53,5.29c-45.178-4.904-90.252-10.955-137.1-16.409-53.235-6.198-108.66-15.315-159.34-16.41-.911,1.972 1.958,1.041 2.117,1.059 12.335,1.366 22.226-.112 34.938,1.588 91.281,12.21 188.14,21.803 278.44,33.35-5.88-2.89-12.74-2.5-19.06-3.18zm-278.97-27c3.708.758 10.404,3.348 12.705-.529-5.51.6-8.55-1.87-12.71.53zm299.61,17.47c6.24.465 12.734.676 17.469,2.647-4.629.16-11.979-1.391-17.469-2.118v3.706c5.923.782 11.642,1.769 17.998,2.117 .161-3.338-.084-6.269-.529-8.999-6.262-.267-11.756-1.303-17.469-2.117v4.76zm0,7.94c5.753-.063 13.607,3.273 17.998,1.059-3.461-3.774-12.618-1.851-17.998-3.705v2.65zm0,1.59c4.037,3.021 12.077,2.039 17.998,3.177-3.38-3.36-13.43-2.76-18-3.18zm17.47,4.76c-5.934-.791-10.445-2.851-16.939-1.588 5.1.73 12.2,2.27 16.94,1.59z"></path>
	<path d="m93.697,8.475c5.056,8.708 12.846,14.68 19.057,22.233 .457,2.574.011,3.871 0,7.411 2.229-.064.525-4.062 1.059-5.823 3.706,2.121 2.113,8.47 2.117,12.705 .006,5.061-.004,10.797 0,15.881 2.426-8.061-.388-15.343.529-25.938 7.145,7.324 14.308,14.63 20.645,22.762-.878.886-3.108.421-4.764.529-1.174,3.414-.222,8.954-.529,13.234-3.197-.197-5.85.149-8.47.529-.959-1.684.962-5.562-.529-8.47-1.417,1.628.088,7.642-.529,8.47-3.733-.389-2.108-6.005-2.118-8.999-.011-3.349.377-6.754-.529-8.999-.768,4.576-.435,11.872-.529,18.527-7.737-.037-12.921,1.112-19.586,1.059-6.395-8.604-13.786-16.211-20.116-24.88v-11.116c-2.204,1.325-.542,6.516-1.059,9.528-5.241-4.011-1.625-14.448-3.176-20.645-1.231,4.239-.179,10.761-.529,15.881-4.89-5.168-8.66-11.455-13.763-16.41-6.355.35-12.249,1.162-18.527,1.588-2.647,1.411-2.866,5.251-5.823,6.353v-5.293c-2.296.509-.857,5.559 0,6.352-.97.618-1.792,1.384-2.646,2.117-1.231-4.062-.179-10.407-.529-15.351-2.644,3.086-.071,14.317-1.059,15.881-4.979,5.19-14.842,7.341-24.88,5.823 4.041-9.38 12.659-19.794 15.881-26.468-.386-1.288 1.497-4.841 4.234-4.764v4.764c2.29.349.173-3.709 1.588-4.235 2.65.18 3.702-1.239 6.352-1.059-.979-1.617-2.515.611-4.235,0 1.372-.786 4.883-2.527 5.823-.529 3.373-3.108 13.28-4.913 16.945-4.236 3.335-2.664 8.947-3.052 13.764-4.235 1.122.521-1.134,3.332.529,4.235 1.158-.959.09-4.145 1.059-5.294 .823-.711 8.283,2.842 5.823,2.118 3.999,1.177 10.359.784 13.763,3.176 .915.643 1.524,3.446 4.764,1.588zm10.583,15.352c1.893.93 2.483,3.163 4.235,4.234-.86-1.626-2.74-5.002-4.24-4.234zm25.41,27.526c1.734.913 2.5,2.793 4.234,3.706-.8-1.5-2.71-4.668-4.23-3.706zm-58.226-21.704c.388,1.853.385.753.529-.529 .911-8.073.218-15.798-.529-23.821 .915,11.151-1.425,17.544 0,24.35zm-41.819,4.235c1.949-4.322 1.282-16.585.529-20.116-.48,4.202-.601,11.622-.529,20.116zm51.877,16.41c1.626.81 1.626-3.457 0-2.647v2.647zm38.638,2.647c-.745-2.19.453-3.031-1.059-4.235 .44,1.329-1.02,4.558 1.06,4.235z" fill="#e7e7e8"></path>
	<path d="m108.52,28.061c-1.751-1.072-2.342-3.305-4.235-4.234 1.5-.768 3.38,2.608 4.24,4.234z"></path>
	<path d="m133.93,55.059c-1.734-.913-2.5-2.793-4.234-3.706 1.51-.962 3.42,2.206 4.23,3.706z"></path>
	<path d="m80.992,69.351c20.042-4.867 16.596,26.257-.529,21.174-9.216-2.735-9.853-18.653.529-21.174zm-6.352,12.175c2.767-.296 1.408,3.533 3.706,3.706 .119-.411.015-1.045.529-1.059 5.821,5.726 12.714.641 12.175-5.294-.299-3.293-5.786-5.521-3.176-6.882-5.739-4.747-14.394.878-13.234,9.529z"></path>
	<path d="m102.17,142.93c-.735-3.105-4.613,3.986-1.588,0-.037,2.669-1.687,3.147-3.706,4.235 4.186-2.255-1.038-.99-3.176,1.588 2.109-3.537 6.121-5.172 7.94-8.999 1.174-.292.754,1.011 1.588,1.059 .149-.855-.5-.911-.53-1.588-2.862.497-5.255,6.032-8.999,7.411v-5.294c-1.506,2.022.422,7.48-1.059,9.528h-3.176c.121-4.414-.086-12.928 0-19.057-1.509,6.16-.167,13.381-1.059,19.586-13.158,3.763-29.644,6.143-40.231-1.588 6.572,1.545 12.241,3.992 19.586,4.764-7.021-3.036-16.321-3.794-23.292-6.881-.432-2.205.72-4.418 0-5.294-2.233,1.5.136,4.343-.529,7.411-1.496.438-1.371-.746-2.646-.529-.321-5.149.662-11.602-.53-15.881-1.113,4.363-.109,7.896-.529,13.234-1.963.375-2.271-.904-4.235-.529 .257,2.036 4.286.301 4.235,2.646-4.955-.691-8.473-2.82-13.763-3.177-6.013-9.867-12.676-19.085-17.998-29.644 13.738-1.463 28.208,1.59 26.468,15.881 1.218-1.253.189-4.751.529-6.882 3.233.267 1.46,2.708 1.588,4.235 .37,4.422.212,8.44.529,14.292 1.902-3.7-.16-9.468.529-15.881 3.98,5.195 14.167,4.185 22.762,4.765 7.133-7.513 13.251-16.04 19.586-24.351 1.218,1.253.19,4.751.529,6.882 2.427-2.38.417-5.665 1.059-7.94 2.513-8.909 13.667-12.124 16.939-20.645 8.535.287 14.826,2.818 23.292,3.176-.374,4.846.229,11.236 0,17.469 1.847-4.277-.333-10.816 1.059-16.939 2.855.321 5.264,1.088 8.47,1.059-.646,4.343-.224,7.504 0,12.176 1.015,1.884 2.029,1.015 3.706,1.588-1.383,1.265-4.65,7.917-5.823,4.234-.985,1.839-.422,5.226-2.118,6.353-2.743-3.487-1.127-12.958-1.588-21.174-1.393,4.636.173,20.134-1.059,23.291 .402,1.346-3.617.889-1.588,2.118-8.6,6.04-11.98,14.48-21.17,23.29zm7.94-11.11c-.825,2.538-4.945,4.569-4.764,6.353 1.11-2.25 5.49-4.02 4.76-6.35zm-24.883,16.4c.278-10.542-.152-26.589 0-41.29-.117-.412-.443-.615-1.059-.529 1.504,11.44-.644,30.07 1.059,41.82zm35.993-28.58c.521-1.442 3.725-2.95 2.646-4.235-.52,1.45-3.72,2.95-2.65,4.24zm-104.81,7.41c-1.473-3.997-3.651-7.289-6.352-10.058 1.858,3.61 3.856,7.09 6.352,10.06zm10.587,16.41c-2.689-5.428-6.143-10.09-9.528-14.821 2.594,5.52 5.774,10.46 9.528,14.82zm41.819,10.59c.625.563 3.351.24 3.706-1.059-1.641-.05-2.937.24-3.706,1.06z" fill="#e7e7e8"></path>
	<path d="m105.34,138.17c-.181-1.783 3.939-3.814 4.764-6.353 .74,2.33-3.64,4.1-4.76,6.35z"></path>
	<path d="m123.87,115.4c1.078,1.285-2.125,2.793-2.646,4.235-1.07-1.29 2.13-2.79 2.65-4.24z"></path>
	<path d="m10.059,116.99c2.701,2.769 4.879,6.061 6.352,10.058-2.496-2.97-4.494-6.45-6.352-10.06z"></path>
	<path d="m500.24,33.884c-96.54,9.436-192.28,16.679-287.97,26.468 78.892-6.429 168.55-13.736 252.5-22.233 11.802-1.195 23.855-2.324 35.467-2.118-1.019,3.092-4.957,1.423-6.882,1.588-84.388,7.243-169.65,15.77-252.5,23.292 83.075-6.49 170.65-14.834 259.38-22.762-.879,2.827 2.064,9.476-2.118,8.999 .938.826 2.82.708 2.118,3.176 .17,26.173-.497,50.361 0,70.934-7.566-.728-15.036-1.551-22.233-2.647 3.468,1.757 8.998,1.992 13.763,2.647 4.084.562 9.208-.47 8.471,4.234-19.305.304-40.243-4.055-61.405-6.353-21.151-2.296-42.604-4.681-62.994-7.41 20.789,4.318 42.676,5.832 63.523,8.47 16.846,2.131 36.169,2.992 55.053,6.881 2.006.413 5.987-.702 5.823,3.177-12.271.767-24.355-2.259-36.526-3.706-61.96-7.368-128.26-15.104-190.57-22.762-30.121-3.702-57.734-7.479-90.52-7.94 .266-16.954.205-22.31.53-37.584 35.457,1.46 68.286-3.176 101.11-6.352 69.867-6.761 143.86-12.172 209.62-18.527 .86-.084 4.96-1.871 6.36.527zm-4.23,7.941c-16.903.231-41.045,4.099-56.111,5.293 20.784-.604 41.733-3.886 59.287-4.764-.52-2.361-2.07-.545-3.18-.529zm-56.64,5.822c-.052-.827-.17-1.018-1.06-1.059-11.834-.546-26.221,3.691-38.643,4.235 13.83-.46 26.14-2.442 39.7-3.176zm-47.65,4.235c2.272-.728 6.415.415 7.411-1.588-1.75,1.243-6.68-.689-7.41,1.588zm-8.47.53c4.029-.129 5.591.2 7.94-1.059-2.75-.094-7.79.3-7.94,1.059zm-119.63,10.587c36.711-3.259 75.186-5.812 114.87-10.587-38.07,3.267-78.52,6.03-114.87,10.587zm-55.58-2.647c-8.26.996-18.314-1.762-24.35.529 7.6-.339 19.39.688 24.35-.529zm15.35,2.647c1.755-.382 7.032.001 5.823-1.588-.7,1.771-5.95-1.012-5.82,1.588zm-14.82.529c.931-.304 3.11.64 3.176-.529-.69-.728-3.17-.922-3.18.529zm194.27,13.764c-1.836.424-2.034-.789-3.705-.529-.66,1.759 3.57,1.294 3.7.529zm-95.81,7.411c-3.59-2.154-3.21,2.028 0,0zm5.29,15.347c-19.792-4.055-46.522-7.078-68.816-8.47 24.09,3.267 45.23,5.503 68.82,8.47zm-98.99-7.937c-1.667.594-1.198.048-3.176,0-.75,1.652 3.94,1.652 3.18,0zm250.39,1.059c-3.377-.161-7.894-1.976-11.116-.529 4.4-.115 6.82,1.815 11.12.529zm-234.51,1.588c-.55-.559-3.78-1.094-4.235,0 .55.559 3.78,1.093 4.23,0zm249.86,1.059c10.083.17-6.496-2.216-7.94-1.059 2.49.077 5.62,1.02 7.94,1.059zm-244.03.529c35.364,2.907 71.861,9.061 106.4,11.646-36.469-4.985-72.754-8.623-107.46-13.233-.16,1.043.71,1.053 1.06,1.591zm264.14,1.059c-5.007-.992-11.086-.912-15.88-2.117 4.51,2.091 10.33,2.626 15.88,2.117zm-147.69,11.643c-1.887-.001-6.481-1.536-8.999-.529 2.6.25 6.81,1.65 9,.53zm7.41,1.06c-.978-.179-4.56-1.727-5.294,0 4.77.16 10.89,1.02 5.29,0z" fill="#e7e7e8"></path>
	<path d="m519.3,45c-2.666.334-5.387.613-7.94,1.059 2.143,1.59 4.918-.711 7.94,0v53.464c-3.836-.247-5.805-.106-9.528-1.059 1.947,2.71 6.993,1.124 9.528,2.117 .09,8.633-.186,15.688 0,23.292-5.758-1.124-12.486-1.277-17.998-2.646-.018-28.015.219-55.539 0-78.874 4.857-1.525 11.721-.457 17.469-2.118 2.25.69-.05,2.639.53,4.772zm-16.94,2.647c2.396-.957 6.86.156 8.47-1.588-2.68.675-7.12-.413-8.47,1.588z" fill="#e7e7e8"></path>
	<path d="m157.75,60.881c-.682,6.023 1.379,14.79-1.059,19.057v-7.94c-1.971,1.685.68,5.905-1.059,8.47-2.087.323-.623-2.906-1.059-4.235-1.194.395-.207,2.969-.529,4.235-9.166-.392-13.409.334-21.174-.529 .898-3.124-.915-6.452.529-9.528 3.087,1.452 2.436,4.517 4.764,5.823 8.461,4.747 15.657-8.25 7.411-13.763-2.376-.901-3.839.576-5.293-1.059 4.31-1.904 11.81-1.11 17.47-.531zm-1.06,6.352c-.436-1.328 1.029-4.558-1.059-4.235 .61,2.293-.46,3.506 1.06,4.235z" fill="#e7e7e8"></path>
	<path d="m87.874,71.998c-2.61,1.361 2.877,3.588 3.176,6.882 .539,5.935-6.354,11.02-12.175,5.294-.515.014-.411.647-.529,1.059-2.298-.173-.939-4.002-3.706-3.706-1.16-8.652 7.495-14.277 13.234-9.529zm-7.94,10.586c2.51,7.838 14.076-2.653 7.94-4.764 2.877,5.498-4.691,8.184-7.94,4.764zm2.647-.529c1.609.021 3.484.309 3.176-1.588-1.177.411-2.871.306-3.176,1.588z" fill="#e7e7e8"></path>
</g>
</svg>
